<svg id="visual" viewBox="0 0 960 540" width="960" height="540" xmlns="http://www.w3.org/2000/svg" xmlns:xlink="http://www.w3.org/1999/xlink" version="1.1"><rect x="0" y="0" width="960" height="540" fill="#f0f0f0"></rect><defs><linearGradient id="grad1_0" x1="43.8%" y1="0%" x2="100%" y2="100%"><stop offset="14.444444444444446%" stop-color="#f0f0f0" stop-opacity="1"></stop><stop offset="85.55555555555554%" stop-color="#f0f0f0" stop-opacity="1"></stop></linearGradient></defs><defs><linearGradient id="grad2_0" x1="0%" y1="0%" x2="56.3%" y2="100%"><stop offset="14.444444444444446%" stop-color="#f0f0f0" stop-opacity="1"></stop><stop offset="85.55555555555554%" stop-color="#f0f0f0" stop-opacity="1"></stop></linearGradient></defs><g transform="translate(960, 0)"><path d="M0 324C-18.4 327.2 -36.8 330.4 -50.2 317C-63.6 303.7 -72 273.7 -85.3 262.5C-98.6 251.2 -116.7 258.7 -130.3 255.7C-143.9 252.8 -153 239.4 -171.6 236.2C-190.3 233.1 -218.5 240.1 -229.1 229.1C-239.7 218.1 -232.8 189.1 -232.2 168.7C-231.6 148.3 -237.3 136.5 -243.2 123.9C-249.2 111.4 -255.3 98.2 -262.5 85.3C-269.7 72.4 -278 59.8 -288.4 45.7C-298.8 31.5 -311.4 15.8 -324 0L0 0Z" fill="#6cb2eb"></path></g><g transform="translate(0, 540)"><path d="M0 -324C14.8 -305.6 29.7 -287.2 43.6 -275.6C57.6 -263.9 70.8 -259 81.3 -250.1C91.8 -241.2 99.6 -228.3 118 -231.7C136.5 -235.1 165.5 -254.8 187.5 -258.1C209.5 -261.3 224.6 -248 229.1 -229.1C233.6 -210.2 227.5 -185.8 236.2 -171.6C244.9 -157.5 268.4 -153.7 276.2 -140.7C284 -127.7 276 -105.5 270.1 -87.8C264.2 -70 260.3 -56.6 269.6 -42.7C279 -28.8 301.5 -14.4 324 0L0 0Z" fill="#6cb2eb"></path></g></svg>