<svg id="visual" viewBox="0 0 960 540" width="960" height="540" xmlns="http://www.w3.org/2000/svg" xmlns:xlink="http://www.w3.org/1999/xlink" version="1.1"><rect x="0" y="0" width="960" height="540" fill="#f0f0f0"></rect><defs><linearGradient id="grad1_0" x1="43.8%" y1="0%" x2="100%" y2="100%"><stop offset="14.444444444444446%" stop-color="#f0f0f0" stop-opacity="1"></stop><stop offset="85.55555555555554%" stop-color="#f0f0f0" stop-opacity="1"></stop></linearGradient></defs><defs><linearGradient id="grad2_0" x1="0%" y1="0%" x2="56.3%" y2="100%"><stop offset="14.444444444444446%" stop-color="#f0f0f0" stop-opacity="1"></stop><stop offset="85.55555555555554%" stop-color="#f0f0f0" stop-opacity="1"></stop></linearGradient></defs><g transform="translate(960, 0)"><path d="M0 324C-16.9 319.8 -33.8 315.7 -48.3 305.2C-62.9 294.7 -75.2 278 -86.5 266.3C-97.9 254.6 -108.3 248.1 -128.5 252.2C-148.6 256.2 -178.5 271 -190.4 262.1C-202.4 253.3 -196.5 220.9 -206.5 206.5C-216.4 192.1 -242.2 195.6 -259.7 188.7C-277.2 181.7 -286.4 164.2 -282.4 143.9C-278.5 123.6 -261.3 100.6 -258.7 84.1C-256.1 67.5 -268.2 57.5 -281.5 44.6C-294.8 31.7 -309.4 15.8 -324 0L0 0Z" fill="#6cb2eb"></path></g><g transform="translate(0, 540)"><path d="M0 -324C12.6 -293.8 25.1 -263.5 41 -258.8C56.9 -254 76.1 -274.7 88.1 -271.1C100.1 -267.4 104.8 -239.5 118.5 -232.6C132.1 -225.6 154.6 -239.7 178.1 -245.1C201.6 -250.6 226 -247.4 229.1 -229.1C232.2 -210.8 214.1 -177.5 225.7 -164C237.3 -150.5 278.7 -156.7 282.4 -143.9C286.2 -131.2 252.3 -99.4 249.2 -81C246.1 -62.5 273.8 -57.4 291.4 -46.1C309 -34.9 316.5 -17.4 324 0L0 0Z" fill="#6cb2eb"></path></g></svg>