<svg id="visual" viewBox="0 0 960 540" width="960" height="540" xmlns="http://www.w3.org/2000/svg" xmlns:xlink="http://www.w3.org/1999/xlink" version="1.1"><rect x="0" y="0" width="960" height="540" fill="#f0f0f0"></rect><defs><linearGradient id="grad1_0" x1="43.8%" y1="0%" x2="100%" y2="100%"><stop offset="14.444444444444446%" stop-color="#f0f0f0" stop-opacity="1"></stop><stop offset="85.55555555555554%" stop-color="#f0f0f0" stop-opacity="1"></stop></linearGradient></defs><defs><linearGradient id="grad2_0" x1="0%" y1="0%" x2="56.3%" y2="100%"><stop offset="14.444444444444446%" stop-color="#f0f0f0" stop-opacity="1"></stop><stop offset="85.55555555555554%" stop-color="#f0f0f0" stop-opacity="1"></stop></linearGradient></defs><g transform="translate(960, 0)"><path d="M0 324C-17.6 324.8 -35.2 325.5 -50.7 320C-66.2 314.5 -79.7 302.7 -97 298.6C-114.4 294.6 -135.7 298.3 -143.5 281.6C-151.2 264.8 -145.5 227.5 -154.6 212.8C-163.7 198 -187.6 205.9 -200.1 200.1C-212.6 194.4 -213.7 175.1 -223.3 162.2C-232.9 149.4 -251.1 143 -255.7 130.3C-260.4 117.6 -251.5 98.5 -260.6 84.7C-269.6 70.9 -296.6 62.4 -310.1 49.1C-323.7 35.9 -323.8 17.9 -324 0L0 0Z" fill="#6cb2eb"></path></g><g transform="translate(0, 540)"><path d="M0 -324C13.3 -300.6 26.6 -277.2 44.1 -278.5C61.6 -279.8 83.3 -305.9 100.1 -308.1C116.9 -310.4 128.9 -288.9 137.6 -270C146.2 -251.1 151.6 -234.8 166.9 -229.8C182.2 -224.7 207.5 -230.9 225.6 -225.6C243.7 -220.2 254.6 -203.3 249.2 -181C243.8 -158.8 222 -131.3 230.8 -117.6C239.5 -103.9 278.7 -103.9 286.3 -93C293.8 -82.1 269.6 -60.2 270.6 -42.9C271.6 -25.5 297.8 -12.8 324 0L0 0Z" fill="#6cb2eb"></path></g></svg>